<svg xmlns="http://www.w3.org/2000/svg" viewBox="0 0 100 100">
  <defs>
    <linearGradient id="br" x1="0%" y1="0%" x2="100%" y2="100%">
      <stop offset="0%" stop-color="#0891B2"/>
      <stop offset="100%" stop-color="#0E7490"/>
    </linearGradient>
  </defs>
  <rect width="100" height="100" rx="22" fill="url(#br)"/>
  <!-- Neural network nodes -->
  <circle cx="50" cy="50" r="8" fill="white" opacity="0.95"/>
  <circle cx="22" cy="35" r="5" fill="white" opacity="0.8"/>
  <circle cx="78" cy="35" r="5" fill="white" opacity="0.8"/>
  <circle cx="22" cy="65" r="5" fill="white" opacity="0.8"/>
  <circle cx="78" cy="65" r="5" fill="white" opacity="0.8"/>
  <circle cx="50" cy="20" r="5" fill="white" opacity="0.7"/>
  <circle cx="50" cy="80" r="5" fill="white" opacity="0.7"/>
  <!-- Connections -->
  <line x1="50" y1="42" x2="22" y2="38" stroke="white" stroke-width="1.5" opacity="0.5"/>
  <line x1="50" y1="42" x2="78" y2="38" stroke="white" stroke-width="1.5" opacity="0.5"/>
  <line x1="50" y1="58" x2="22" y2="62" stroke="white" stroke-width="1.5" opacity="0.5"/>
  <line x1="50" y1="58" x2="78" y2="62" stroke="white" stroke-width="1.5" opacity="0.5"/>
  <line x1="50" y1="42" x2="50" y2="25" stroke="white" stroke-width="1.5" opacity="0.5"/>
  <line x1="50" y1="58" x2="50" y2="75" stroke="white" stroke-width="1.5" opacity="0.5"/>
  <line x1="27" y1="37" x2="27" y2="63" stroke="white" stroke-width="1" opacity="0.3"/>
  <line x1="73" y1="37" x2="73" y2="63" stroke="white" stroke-width="1" opacity="0.3"/>
</svg>